<svg id="Grupo_51" data-name="Grupo 51" xmlns="http://www.w3.org/2000/svg" xmlns:xlink="http://www.w3.org/1999/xlink" width="74.881" height="101.13" viewBox="0 0 74.881 101.13">
  <defs>
    <clipPath id="clip-path">
      <rect id="Rectángulo_50" data-name="Rectángulo 50" width="74.881" height="101.13" fill="none"/>
    </clipPath>
  </defs>
  <g id="Grupo_50" data-name="Grupo 50" clip-path="url(#clip-path)">
    <path id="Trazado_105" data-name="Trazado 105" d="M53.233,0a11.059,11.059,0,0,1,2.446,1.4,5.906,5.906,0,0,1,1.794,4.622q-.029,20.046-.015,40.092a6.478,6.478,0,0,1,0,.691c-.078.722.1,1.09.954.956a11.293,11.293,0,0,1,2.07-.015,4.894,4.894,0,0,1,4.274,2.565c.333.566.575.676,1.2.463a8.933,8.933,0,0,1,5.243-.1,5.168,5.168,0,0,1,3.655,5.162c.035,1.316.029,2.633.017,3.949-.01,1.09-.657,1.827-1.542,1.808-.808-.017-1.42-.752-1.439-1.808-.024-1.316.019-2.634-.006-3.95a2.278,2.278,0,0,0-2.446-2.485c-.526-.019-1.053-.012-1.58,0a2.074,2.074,0,0,0-1.975,1.214c-.554,1.1-1.262,1.5-2.056,1.278a1.817,1.817,0,0,1-1.289-2.165c.165-2.1-.954-3.043-3.015-3.024-1.576.015-2.774.258-3.5,1.895a1.575,1.575,0,0,1-2.854-.131,4.2,4.2,0,0,0-5.272-1.43,1.972,1.972,0,0,0-1.013,1.388c-.053.291-.108.583-.174.871a1.332,1.332,0,0,1-1.319,1.113,1.365,1.365,0,0,1-1.455-.938,3.061,3.061,0,0,1-.154-1.262q0-9.53-.008-19.059c0-1.886-.809-2.6-2.706-2.695-3.195-.154-3.673.765-3.661,3.6.048,11.916.011,23.831,0,35.747,0,.033,0,.066,0,.1a1.678,1.678,0,0,1-1.049,1.911c-.934.344-1.486-.22-1.994-.867-1.726-2.2-3.417-4.429-5.186-6.594a5.787,5.787,0,0,0-7.477-1.334c-1.167.68-1.221.9-.417,1.934q4.645,5.952,9.3,11.894a6.446,6.446,0,0,1,1.484,3.876A6.738,6.738,0,0,0,37.7,87.306c1.5.308,3,.668,4.5.988a1.55,1.55,0,0,1,1.363,1.741c-.023,2.337.021,4.674-.013,7.011-.012.838.246,1.147,1.13,1.143q11.356-.044,22.713,0c.761,0,.964-.269.961-.97-.015-3.654.03-7.308-.011-10.961a4.453,4.453,0,0,1,1.741-3.867,4.943,4.943,0,0,0,1.792-4.188c-.013-3.423,0-6.847.008-10.27a6.413,6.413,0,0,1,.1-1.274,1.279,1.279,0,0,1,1.326-1.093,1.337,1.337,0,0,1,1.453,1.068,2.224,2.224,0,0,1,.095.582c-.022,4.014,0,8.029-.1,12.042a7.1,7.1,0,0,1-2.684,5.292,1.979,1.979,0,0,0-.757,1.689c.028,3.653.012,7.307.013,10.961,0,2.62-1.306,3.927-3.943,3.927q-11.455,0-22.91-.009c-2.547,0-3.871-1.341-3.876-3.9,0-.79-.028-1.581.014-2.369.028-.518-.137-.7-.66-.677-.986.035-1.975.01-2.962.01q-15.6,0-31.205,0a5.506,5.506,0,0,1-5.55-3.894,6.689,6.689,0,0,1-.22-2.146Q.012,47.015,0,5.886A5.5,5.5,0,0,1,3.575.318,2.884,2.884,0,0,0,4.048,0Zm-19,65.939.213-.091q0-.283,0-.567c.006-8.722,0-17.445.037-26.168,0-.836-.235-1.021-1.046-1.018-6.814.034-13.628.026-20.441.014a3.864,3.864,0,0,1-3.98-3.9c-.04-3.489-.03-6.978,0-10.468a3.873,3.873,0,0,1,2.73-3.717,7.626,7.626,0,0,1,2.253-.186q12.393.009,24.786.018c2.041,0,4.082-.043,6.122-.017a3.912,3.912,0,0,1,4.155,4.235c.006,3.259,0,6.518,0,9.776a3.461,3.461,0,0,1-1.216,3.092,2.574,2.574,0,0,0-1.079,2.7c.038.59,0,1.185.006,1.777,0,1.975,0,3.95.018,5.925,0,.326-.092.763.546.646,2.419-.446,4.819-.65,6.995.887a1.618,1.618,0,0,0,.135-1.011c.015-10.863.008-21.725.041-32.588,0-.826-.348-.877-1-.876q-15.4.025-30.81.014a10.934,10.934,0,0,1-1.184-.015A1.432,1.432,0,0,1,20.2,12.845c.041-.921.668-1.388,1.888-1.388q15.7,0,31.4.015c.749,0,1.037-.151,1-.965-.067-1.544,0-3.094-.014-4.64-.012-1.974-.947-2.9-2.9-2.9l-45.327,0c-.263,0-.527-.011-.79,0A2.356,2.356,0,0,0,3.038,5.415C3,7.093,3.074,8.775,2.991,10.45c-.042.857.237,1.035,1.039,1.025,3.456-.041,6.912-.013,10.369-.02a1.627,1.627,0,0,1,1.429.488,1.452,1.452,0,0,1,.218,1.654,1.548,1.548,0,0,1-1.552.826c-3.522-.012-7.044.017-10.566-.021-.742-.008-.933.2-.928.937.031,4.608.01,9.216.009,13.825Q3,51.925,3,74.688c0,1.788,0,1.789,1.733,1.789H20.135a5.875,5.875,0,0,1,.887.022,1.477,1.477,0,0,1,1.39,1.607c-.076.927-.665,1.3-1.528,1.336-.3.013-.592.007-.889.007-5.333,0-10.665.005-16-.032-.775-.006-1.03.206-1.017.991.044,2.567,0,5.135.027,7.7.022,2.345.819,3.11,3.171,3.111l32.093.018h2.192c.009-.1.017-.2.026-.293-1.058-.232-2.111-.49-3.175-.691a9.721,9.721,0,0,1-8.188-9.363,3.685,3.685,0,0,0-.893-2.345q-4.823-6.126-9.607-12.283a3.442,3.442,0,0,1,.627-5.189,8.787,8.787,0,0,1,12.386,1.547c.876,1.1,1.729,2.21,2.593,3.316M46.091,29.762c0-1.973.006-3.74,0-5.506-.005-1.179-.207-1.395-1.375-1.4q-15.7-.011-31.393-.008c-1.088,0-1.345.261-1.346,1.338q0,4.689.01,9.378c0,1.34.272,1.591,1.63,1.591q9.132,0,18.264,0c.817,0,1.891.262,2.384-.15.582-.487.172-1.6.2-2.443a4.936,4.936,0,0,1,2.869-4.575c2.625-1.313,6-.66,8.761,1.773" transform="translate(0)" fill="#fff"/>
    <path id="Trazado_106" data-name="Trazado 106" d="M47.57,164.045c-1.872,0-3.745.009-5.617,0-1.185-.008-1.845-.524-1.873-1.422-.028-.914.721-1.557,1.878-1.56q5.715-.015,11.43,0c1.246,0,1.894.551,1.888,1.515-.006.939-.572,1.464-1.7,1.477-2,.024-4.007.007-6.011.007v-.015" transform="translate(-29.504 -118.552)" fill="#fff"/>
    <path id="Trazado_107" data-name="Trazado 107" d="M47.642,190.156c-1.97,0-3.939.01-5.909,0a1.518,1.518,0,0,1-1.647-1.437A1.545,1.545,0,0,1,41.7,187.2q6.007-.033,12.014.006a1.441,1.441,0,0,1,1.561,1.52c-.021.9-.575,1.417-1.629,1.427-2,.019-4,.006-6.007.006Z" transform="translate(-29.508 -137.79)" fill="#fff"/>
  </g>
</svg>
