<svg xmlns="http://www.w3.org/2000/svg" xmlns:xlink="http://www.w3.org/1999/xlink" width="24.754" height="27.729" viewBox="0 0 24.754 27.729">
  <defs>
    <clipPath id="clip-path">
      <rect id="Rectángulo_3870" data-name="Rectángulo 3870" width="24.754" height="27.729" fill="#5c5b5b"/>
    </clipPath>
  </defs>
  <g id="Grupo_6608" data-name="Grupo 6608" transform="translate(0)">
    <g id="Grupo_6607" data-name="Grupo 6607" transform="translate(0)" clip-path="url(#clip-path)">
      <path id="Trazado_254" data-name="Trazado 254" d="M12.376,27.724c-1.629,0-3.259-.019-4.887,0a3.519,3.519,0,0,1-3.6-3.4c-.063-1.19-.232-2.375-.345-3.563s-.211-2.377-.324-3.565c-.092-.973-.2-1.944-.292-2.917-.112-1.178-.212-2.357-.323-3.535C2.489,9.5,2.36,8.255,2.246,7c-.015-.166-.081-.207-.228-.206-.33,0-.66,0-.99-.009A.992.992,0,0,1,.5,4.936a1.234,1.234,0,0,1,.658-.126c1.67,0,3.341,0,5.011,0,.247,0,.365-.05.438-.319A5.691,5.691,0,0,1,11.345.1a5.883,5.883,0,0,1,6.824,4.432c.06.247.163.28.369.279q2.536,0,5.073,0a1,1,0,0,1,1.08.646.95.95,0,0,1-.761,1.292,9.891,9.891,0,0,1-1.2.033c-.143,0-.2.03-.211.181-.094,1.065-.2,2.129-.3,3.193-.095.982-.2,1.964-.29,2.947-.091.952-.175,1.9-.266,2.856-.1,1.024-.2,2.047-.3,3.07-.09.952-.16,1.907-.264,2.857a23.9,23.9,0,0,1-.373,3.275,3.378,3.378,0,0,1-3.31,2.558c-1.681.008-3.361,0-5.042,0Zm0-20.948v.005h-7.3c-.216,0-.433.006-.649.005-.155,0-.22.056-.2.224.088.87.165,1.741.25,2.611.115,1.187.239,2.372.35,3.559.133,1.413.252,2.827.386,4.24.114,1.2.245,2.393.36,3.591.111,1.156.2,2.314.319,3.47a1.448,1.448,0,0,0,1.416,1.263q5.057.006,10.114,0a1.461,1.461,0,0,0,1.458-1.391c.019-.3.051-.595.08-.891.1-.983.2-1.965.289-2.948s.174-1.946.267-2.919c.113-1.188.238-2.374.35-3.562s.212-2.4.325-3.6q.162-1.72.341-3.438c.015-.146-.024-.214-.175-.213-.092,0-.185-.013-.278-.013h-7.7m.034-1.968v.005q1.7,0,3.4,0c.4,0,.4,0,.243-.386a3.958,3.958,0,0,0-4.419-2.368A3.851,3.851,0,0,0,8.667,4.532c-.086.217-.057.282.189.28,1.185-.01,2.371,0,3.556,0" transform="translate(0 0)" fill="#5c5b5b"/>
      <path id="Trazado_255" data-name="Trazado 255" d="M384.543,343.37q0,2.55,0,5.1a.99.99,0,0,1-1,1.089,1,1,0,0,1-.981-1.08q0-5.131,0-10.261a.995.995,0,1,1,1.979-.009q0,2.581,0,5.162" transform="translate(-371.172 -327.079)" fill="#5c5b5b"/>
      <path id="Trazado_256" data-name="Trazado 256" d="M245.612,343.409q0,2.58,0,5.161a.981.981,0,0,1-1.956.15,1.6,1.6,0,0,1-.013-.246q0-5.1,0-10.2a1.015,1.015,0,0,1,.609-1.019.912.912,0,0,1,1.055.187.986.986,0,0,1,.314.773c-.006,1.73,0,3.461,0,5.192Z" transform="translate(-236.384 -327.126)" fill="#5c5b5b"/>
      <path id="Trazado_257" data-name="Trazado 257" d="M521.667,343.613q0-2.614,0-5.227a.962.962,0,0,1,.8-.987.975.975,0,0,1,1.05.533,1.214,1.214,0,0,1,.121.567q0,5.1,0,10.207a1.031,1.031,0,0,1-.8,1.094,1,1,0,0,1-1.125-.657,1.15,1.15,0,0,1-.046-.426q0-2.552,0-5.1" transform="translate(-506.133 -327.332)" fill="#5c5b5b"/>
    </g>
  </g>
</svg>
