<svg id="Grupo_53" data-name="Grupo 53" xmlns="http://www.w3.org/2000/svg" xmlns:xlink="http://www.w3.org/1999/xlink" width="77.502" height="101.13" viewBox="0 0 77.502 101.13">
  <defs>
    <clipPath id="clip-path">
      <rect id="Rectángulo_51" data-name="Rectángulo 51" width="77.502" height="101.13" fill="none"/>
    </clipPath>
  </defs>
  <g id="Grupo_52" data-name="Grupo 52" clip-path="url(#clip-path)">
    <path id="Trazado_108" data-name="Trazado 108" d="M8.764,101.13a14.141,14.141,0,0,1-4.3-1.8A10.286,10.286,0,0,1,.017,90.458q.027-24.05.008-48.1c0-10.6.052-21.2-.025-31.8A10.366,10.366,0,0,1,7.751.3,8.929,8.929,0,0,1,9.89,0q21.581,0,43.161,0A10.205,10.205,0,0,1,63.2,10.086c.074,3.159.025,6.321.016,9.481a1.576,1.576,0,0,1-1.189,1.718,1.371,1.371,0,0,1-1.578-.736,2.25,2.25,0,0,1-.192-1.248q-.006-4.2,0-8.4c0-4.92-3.009-7.959-7.9-7.961-13.795,0-27.589.072-41.383-.044a7.68,7.68,0,0,0-8.02,7.992c.114,14.946.039,29.893.041,44.84q0,17.432.018,34.865a7.133,7.133,0,0,0,5.108,7.24,7.635,7.635,0,0,0,2.326.336q20.988-.012,41.976-.006c4.786,0,7.829-3.013,7.845-7.813.017-5.3,0-10.6,0-15.9,0-.4-.011-.79,0-1.185.037-1.05.648-1.763,1.479-1.743A1.612,1.612,0,0,1,63.2,73.217c-.055,6.385.224,12.775-.139,19.153-.223,3.924-3.978,7.791-8.047,8.546-.217.04-.472-.028-.62.214Z" transform="translate(0 0)" fill="#fff"/>
    <path id="Trazado_109" data-name="Trazado 109" d="M25.649,91.423q3.009-2.9,6.016-5.81c.828-.8,1.638-1.62,2.478-2.407s1.735-.837,2.352-.189c.634.665.538,1.524-.291,2.33q-5.1,4.954-10.216,9.888a1.7,1.7,0,0,0-.594,1.37c.031,1.9.012,3.81.012,5.72.526.094.68-.315.913-.54q6.535-6.308,13.05-12.637c1.143-1.108,1.886-1.133,3.05-.077q10.527,9.553,21.043,19.119a1.85,1.85,0,0,0,1.395.55c1.382-.036,2.765-.012,4.148-.014a2.765,2.765,0,0,0,.687-.03c.312-.083.67-.181.789-.523.13-.374-.256-.5-.455-.681Q63.9,101.9,57.765,96.324q-5.881-5.343-11.771-10.676c-1.028-.933-1.093-1.864-.14-2.795q5.05-4.932,10.125-9.839a1.528,1.528,0,0,1,2.035-.384,1.434,1.434,0,0,1,.61,1.639,2.118,2.118,0,0,1-.8,1.092c-2.809,2.73-5.61,5.468-8.443,8.174-.511.488-.493.759.025,1.227q10.509,9.5,20.988,19.031a1.188,1.188,0,0,0,.258.135c.273-.331.146-.708.147-1.053.015-4.148.015-8.3.023-12.444a8.284,8.284,0,0,1,.048-.985,1.429,1.429,0,0,1,2.765-.276,3.093,3.093,0,0,1,.143.968c0,5.629.01,11.259-.016,16.888a4.333,4.333,0,0,1-3.324,4.543,4.713,4.713,0,0,1-1.272.108c-13.958,0-27.917-.042-41.874.045a4.692,4.692,0,0,1-4.9-4.9c.078-13.892.038-27.785.037-41.677q0-18.962,0-37.924c0-2.54,1.041-4.048,3.231-4.692a3.563,3.563,0,0,1,.967-.131c1.646-.013,3.292.006,4.938-.01a2.13,2.13,0,0,1,2.2,1.467c.748,1.867,1.206,2.149,3.269,2.144.988,0,1.976-.023,2.963-.005,1.107.02,1.843.653,1.821,1.525-.022.855-.705,1.426-1.774,1.435-1.35.012-2.7.026-4.049-.018a4.931,4.931,0,0,1-4.43-2.808,1.24,1.24,0,0,0-1.359-.787c-.919.045-1.843.009-2.765.008-1.709,0-2.032.309-2.033,1.984q0,11.9,0,23.8,0,19.554,0,39.109v1.071l.242.106m33.684,17.206c.069-.21-.076-.248-.168-.332q-8.244-7.5-16.482-15.016c-1.727-1.576-1.713-1.578-3.382.045q-6.687,6.5-13.39,12.987a1.3,1.3,0,0,0-.2,1.913,1.666,1.666,0,0,0,1.52.5q15.6-.006,31.2-.007c.308,0,.646.1.911-.095" transform="translate(-16.482 -16.483)" fill="#fff"/>
    <path id="Trazado_110" data-name="Trazado 110" d="M187.7,109.913c.186,3.5-1.246,6.527-2.98,9.418A76.7,76.7,0,0,1,172.209,134.4c-.47.461-.933.933-1.437,1.353a2.771,2.771,0,0,1-3.865.04c-6.111-5.782-11.958-11.8-15.63-19.525-2.733-5.748-1.54-11.178,1.639-16.365a1.472,1.472,0,0,1,2.055-.528,1.449,1.449,0,0,1,.387,2.146,17.786,17.786,0,0,0-2.395,6.1,12.913,12.913,0,0,0,1.845,9.146c3.545,6.251,8.375,11.447,13.532,16.368.3.287.541.392.908.036a79.8,79.8,0,0,0,13.586-16.449c4.29-7.246.805-15.067-3.892-18.823a15.972,15.972,0,0,0-19.174-.838,1.674,1.674,0,0,1-2,.234,1.5,1.5,0,0,1,.136-2.541,19.119,19.119,0,0,1,22.286.354,19.375,19.375,0,0,1,7.5,12.839,13.19,13.19,0,0,1,.013,1.971" transform="translate(-110.233 -67.234)" fill="#fff"/>
    <path id="Trazado_111" data-name="Trazado 111" d="M192.149,144.238a10.63,10.63,0,1,1,10.643-10.469,10.685,10.685,0,0,1-10.643,10.469m-.022-2.957a7.671,7.671,0,1,0-7.671-7.668,7.721,7.721,0,0,0,7.671,7.668" transform="translate(-133.591 -90.523)" fill="#fff"/>
    <path id="Trazado_112" data-name="Trazado 112" d="M117.267,26.007c2.073,0,4.147-.018,6.22.007a2.471,2.471,0,0,0,2.553-1.748c.631-1.6,1.075-1.858,2.825-1.857q1.974,0,3.949,0a4.283,4.283,0,0,1,4.546,4.3c.081,3.091.032,6.186.02,9.279a1.622,1.622,0,0,1-1.065,1.716,1.4,1.4,0,0,1-1.579-.508,1.869,1.869,0,0,1-.318-1.4c-.007-2.83,0-5.66-.007-8.49,0-1.536-.4-1.924-1.918-1.934-.362,0-.727.027-1.085-.008-1.508-.149-2.731-.05-3.59,1.62a4.094,4.094,0,0,1-3.772,1.97q-6.861.04-13.722.01a1.331,1.331,0,0,1-1.528-1.419c-.021-.923.577-1.521,1.659-1.534,2.27-.028,4.541-.008,6.812-.008Z" transform="translate(-80.083 -16.495)" fill="#fff"/>
    <path id="Trazado_113" data-name="Trazado 113" d="M64.264,108.664c0-.954-.037-1.911.013-2.862a1.076,1.076,0,0,0-.838-1.273A6.362,6.362,0,0,1,62,93.389a6.389,6.389,0,1,1,6.107,11.117c-.681.285-.93.566-.9,1.324.069,1.906.026,3.817.016,5.726-.006,1.192-.6,1.893-1.551,1.861-.9-.03-1.392-.694-1.4-1.888-.005-.955,0-1.909,0-2.863ZM65.627,102A3.5,3.5,0,0,0,69.2,98.569,3.612,3.612,0,0,0,65.711,95.1a3.5,3.5,0,0,0-3.425,3.384A3.387,3.387,0,0,0,65.627,102" transform="translate(-43.655 -67.817)" fill="#fff"/>
    <path id="Trazado_114" data-name="Trazado 114" d="M99.527,186.632c.038.325-.253.653-.558.951q-6.51,6.331-13.034,12.647a1.461,1.461,0,0,1-2.186.074,1.429,1.429,0,0,1,.112-2.179q6.5-6.339,13.031-12.645a1.4,1.4,0,0,1,1.7-.388,1.563,1.563,0,0,1,.941,1.54" transform="translate(-61.313 -136.138)" fill="#fff"/>
  </g>
</svg>
