<svg id="Grupo_49" data-name="Grupo 49" xmlns="http://www.w3.org/2000/svg" xmlns:xlink="http://www.w3.org/1999/xlink" width="93.123" height="105.667" viewBox="0 0 93.123 105.667">
  <defs>
    <clipPath id="clip-path">
      <rect id="Rectángulo_49" data-name="Rectángulo 49" width="93.123" height="105.667" fill="none"/>
    </clipPath>
  </defs>
  <g id="Grupo_48" data-name="Grupo 48" clip-path="url(#clip-path)">
    <path id="Trazado_99" data-name="Trazado 99" d="M49.308,358.991c-3.6-.648-7.067-1.8-10.586-2.749-4.45-1.2-8.88-2.475-13.317-3.722a6.085,6.085,0,0,0-4.587.492c-.549.283-1.076.615-1.641.863-1.167.512-2.106,1.068-2.011,2.644.058.976-.754,1.512-1.748,1.492-4.468-.091-8.937-.185-13.4-.324C.592,357.643-.038,356.923,0,355.5q.349-12.423.724-24.846c.044-1.512.056-3.025.09-4.538.032-1.426.688-2.086,2.1-2.056q6.445.134,12.889.3c1.754.048,2.37.777,2.253,2.558-.139,2.112-.153,2.077,1.784,1.3a21.6,21.6,0,0,1,18.409.618A21.243,21.243,0,0,0,48,331.29c3.334,0,6.667.175,10,.25a10.8,10.8,0,0,1,9.263,5.039c.4.6.664.71,1.342.383q6.49-3.128,13.033-6.147a8.657,8.657,0,0,1,11.012,3.273,1.786,1.786,0,0,1-.626,2.865q-15.045,9.748-30.1,19.473a17.765,17.765,0,0,1-7.285,2.346,2.465,2.465,0,0,0-1,.219Zm7.97-14.448q0-.2,0-.406c-1.787,0-3.574.019-5.36-.006-1.719-.024-3.439-.057-5.155-.155a1.712,1.712,0,1,1,.209-3.4c2.1.033,4.194.1,6.291.158,3.781.1,7.563.191,11.343.318.767.026.832-.2.614-.88a7.579,7.579,0,0,0-6.49-5.118c-4.02-.161-8.041-.345-12.063-.375a19.676,19.676,0,0,1-9.059-2.328,18.9,18.9,0,0,0-18.873.275,1.474,1.474,0,0,0-.873,1.442c-.112,5.225-.277,10.449-.408,15.674-.008.317-.256.748.106.946.334.183.629-.187.91-.353a9.924,9.924,0,0,1,8.012-1.129c5.167,1.44,10.325,2.91,15.494,4.343,3.524.977,6.993,2.271,10.757,1.944a15.886,15.886,0,0,0,7.36-2.022c9.408-6.012,18.758-12.114,28.144-18.161.7-.454.471-.637-.059-.955a5.407,5.407,0,0,0-5.394-.274c-4.344,2.051-8.678,4.122-13.035,6.146a1.043,1.043,0,0,0-.716,1.393c.343,1.822-.182,3.045-2.473,2.957-3.09-.119-6.187-.029-9.281-.029M14.2,341.019c.1-4.123.194-8.246.323-12.369.019-.6-.063-.841-.747-.849q-4.278-.048-8.554-.221c-.693-.027-.958.112-.963.865-.015,2.268-.11,4.535-.177,6.8q-.267,9.017-.532,18.034c-.012.423-.265.965.591.976,2.99.038,5.979.129,8.967.227.536.018.7-.137.717-.686.106-4.26.246-8.52.375-12.779" transform="translate(0 -253.324)" fill="#fff"/>
    <path id="Trazado_100" data-name="Trazado 100" d="M128.208,155.913a25.124,25.124,0,1,1,25.2-25,25.114,25.114,0,0,1-25.2,25m-.067-3.455a21.651,21.651,0,1,0-21.528-22.415,21.576,21.576,0,0,0,21.528,22.415" transform="translate(-80.602 -82.601)" fill="#fff"/>
    <path id="Trazado_101" data-name="Trazado 101" d="M213.774,10.009c0,2.577.007,5.154,0,7.732-.005,1.415-.654,2.225-1.738,2.213s-1.7-.825-1.7-2.255q-.018-7.783-.018-15.566c0-1.386.684-2.165,1.819-2.131,1.051.031,1.65.811,1.653,2.173q.007,3.917,0,7.835Z" transform="translate(-164.406 0)" fill="#fff"/>
    <path id="Trazado_102" data-name="Trazado 102" d="M150.8,45.271c0-1.238-.028-2.477.008-3.714a1.729,1.729,0,1,1,3.451-.032q.073,3.816.008,7.634a1.739,1.739,0,1,1-3.467-.071c-.038-1.271-.009-2.545-.009-3.817Z" transform="translate(-117.866 -31.035)" fill="#fff"/>
    <path id="Trazado_103" data-name="Trazado 103" d="M273.355,45.333c0,1.236.021,2.472-.006,3.707a1.778,1.778,0,0,1-1.692,1.946,1.754,1.754,0,0,1-1.75-1.891q-.054-3.758,0-7.517a1.683,1.683,0,0,1,1.742-1.865c1.034.024,1.673.707,1.706,1.913.034,1.235.007,2.471.007,3.707h-.011" transform="translate(-210.972 -31.044)" fill="#fff"/>
    <path id="Trazado_104" data-name="Trazado 104" d="M195.654,167.651c0-2.26-1.666-3.822-4.257-3.959a7.049,7.049,0,0,1-6.247-4.033,7.245,7.245,0,0,1,3.631-10.065c.829-.346,1.111-.761.987-1.575a1.772,1.772,0,0,1,.007-.412,1.852,1.852,0,0,1,1.712-1.859,1.722,1.722,0,0,1,1.719,1.909c-.065,1.071.3,1.474,1.31,1.866a7.193,7.193,0,0,1,4.627,6.286,1.861,1.861,0,0,1-1.585,2.26c-1,.112-1.81-.722-1.9-1.961a3.931,3.931,0,0,0-7.848-.044,3.814,3.814,0,0,0,3.455,4.131,9.474,9.474,0,0,1,4.751,1.443,7.331,7.331,0,0,1-1.355,12.77c-1.064.457-1.58.865-1.455,2.087a1.643,1.643,0,0,1-1.6,1.8,1.777,1.777,0,0,1-1.792-1.637,1.661,1.661,0,0,1-.035-.512c.168-.966-.257-1.386-1.158-1.793a7.279,7.279,0,0,1-4.291-6.106,1.89,1.89,0,0,1,1.536-2.3c1.058-.125,1.836.681,1.944,2.014a3.9,3.9,0,0,0,4.231,3.582,3.855,3.855,0,0,0,3.615-3.893" transform="translate(-144.075 -113.933)" fill="#fff"/>
  </g>
</svg>
